<svg xmlns="http://www.w3.org/2000/svg" width="136" height="40" viewBox="0 0 136 40">
    <path fill="#FFF" fill-rule="evenodd" d="M135.848 0v3.832h-.617V.788l-1.127 3.044h-.5L132.476.788v3.044h-.617V0h.979l1.02 2.96L134.87 0h.978zm-4.603.543h-1.224v3.289h-.617V.542h-1.223V0h3.064v.543zM0 39.01h10.41V.85H0v38.16zm15.075-10.842l8.073-2.817.425.85c1.7 3.455 4.249 5.581 8.392 5.581 3.133 0 6.001-1.275 6.001-3.401 0-2.605-1.912-3.242-7.701-4.518-8.923-1.966-13.385-4.677-13.385-11.905S22.83 0 31.54 0c8.551 0 12.694 3.72 15.137 9.354l.584 1.329-8.551 2.763-.584-1.275c-1.116-2.445-3.346-4.465-6.799-4.465-2.974 0-5.099 1.063-5.099 3.19 0 2.125 2.125 2.975 7.224 4.038 10.091 2.126 13.862 5.315 13.862 12.543 0 7.92-7.223 12.383-15.562 12.383-8.02 0-14.075-3.88-16.306-10.576l-.371-1.116zM53.48 39.01h10.463V28.646l4.037-5.049 8.817 15.413h12.269l-13.81-22.428L88.11.85H76.053l-12.11 15.572V.85H53.48v38.16zm34.229-18.974C87.709 8.344 96.419 0 107.945 0c11.473 0 20.236 8.344 20.236 20.036 0 11.32-8.763 19.824-20.236 19.824-11.526 0-20.236-8.503-20.236-19.824zm11.047 0c0 6.165 3.825 10.47 9.19 10.47 5.31 0 9.134-4.305 9.134-10.47 0-6.377-3.824-10.841-9.135-10.841-5.364 0-9.189 4.464-9.189 10.841z"/>
</svg>
